<svg width="1000" height="1250" viewBox="0 0 1000 1250" fill="none" xmlns="http://www.w3.org/2000/svg">
  <rect width="1000" height="1250" fill="#F4ECDD"/>
  <g stroke="#1E3A5F" stroke-opacity="0.06" stroke-width="2">
    <path d="M-200 200 L800 1200 M0 0 L1000 1000 M200 -200 L1200 800"/>
  </g>
  <path d="M150 940 L150 540 Q150 200 500 200 Q850 200 850 540 L850 940 Z" fill="#ECE0C9" stroke="#8D623E" stroke-width="3"/>
  <g transform="translate(500 560)" stroke="#C2410C" stroke-width="9" stroke-linejoin="round" fill="none" opacity="0.5">
    <rect x="-95" y="-205" width="190" height="44" rx="10" fill="#F4ECDD"/>
    <path d="M-118 -161 H118 V200 a44 44 0 0 1 -44 44 H-74 a44 44 0 0 1 -44 -44 Z" fill="#F9E0D2"/>
    <path d="M-95 40 H95 M-95 100 H95 M-95 160 H95" stroke-width="5" stroke-opacity="0.4"/>
  </g>
  <text x="500" y="1090" text-anchor="middle" fill="#2A1D12" font-family="Georgia, 'Times New Roman', serif" font-size="56" font-style="italic">illi</text>
  <text x="500" y="1150" text-anchor="middle" fill="#C2410C" font-family="Arial, sans-serif" font-size="24" letter-spacing="4">NO PHOTO YET</text>
</svg>
